<?xml version="1.0" encoding="UTF-8"?>
<!-- Created with Inkscape (http://www.inkscape.org/) -->
<svg width="26.458mm" height="26.458mm" version="1.1" viewBox="0 0 26.458 26.458" xmlns="http://www.w3.org/2000/svg">
 <g transform="translate(-85.499 -240.87)">
  <ellipse cx="98.728" cy="254.1" rx="11.902" ry="11.902" fill="none" stroke="#000" stroke-dashoffset="2.4" stroke-linecap="round" stroke-width="2.6541" style="paint-order:markers stroke fill"/>
  <g stroke-width="1.1171" aria-label="?">
   <path d="m99.865 256.85h-2.3564v-1.272q0-0.83412 0.18768-1.2303 0.20853-0.41706 0.87583-1.0844l1.5223-1.5223q0.47962-0.52132 0.47962-1.2929 0-0.77157-0.50047-1.272-0.50048-0.52132-1.2929-0.52132t-1.3346 0.50047q-0.52132 0.47962-0.60474 1.2929h-2.5232q0.20853-1.8559 1.4389-2.8986 1.2512-1.0635 3.1071-1.0635t3.0237 1.0218q1.1678 1.001 1.1678 2.8152 0 1.2512-0.68815 2.0853-0.39621 0.50047-0.60474 0.709t-0.56303 0.54218q-0.33365 0.31279-0.58388 0.56303-0.22939 0.22938-0.37536 0.39621-0.37535 0.45876-0.37535 1.2929zm-1.1469 4.6294q-0.64644 0-1.1261-0.43791-0.47962-0.45877-0.47962-1.0844 0-0.64644 0.45877-1.1052 0.47962-0.45877 1.1261-0.45877 0.6673 0 1.1469 0.45877 0.47962 0.43791 0.47962 1.0844 0 0.62559-0.47962 1.0844-0.45877 0.45876-1.1261 0.45876z"/>
  </g>
 </g>
</svg>
