<?xml version="1.0" encoding="UTF-8"?>
<!-- Created with Inkscape (http://www.inkscape.org/) -->
<svg width="4.7659mm" height="6.35mm" version="1.1" viewBox="0 0 4.7659 6.35" xmlns="http://www.w3.org/2000/svg">
 <g transform="translate(-119.45 -241.34)">
  <g stroke-width=".19664" aria-label="?">
   <path d="m122.05 244.18h-0.41479v-0.22391q0-0.14683 0.033-0.21657 0.0367-0.0734 0.15417-0.19088l0.26796-0.26796q0.0844-0.0918 0.0844-0.22758 0-0.13581-0.0881-0.22391-0.0881-0.0918-0.22759-0.0918-0.13948 0-0.23492 0.0881-0.0918 0.0844-0.10645 0.22758h-0.44415q0.0367-0.32669 0.25328-0.51022 0.22024-0.18721 0.54693-0.18721t0.53224 0.17987q0.20556 0.17619 0.20556 0.49554 0 0.22024-0.12113 0.36707-0.0697 0.0881-0.10645 0.1248-0.0367 0.0367-0.0991 0.0954-0.0587 0.0551-0.10278 0.0991-0.0404 0.0404-0.0661 0.0697-0.0661 0.0808-0.0661 0.22758zm-0.20189 0.81489q-0.11379 0-0.19822-0.0771-0.0844-0.0808-0.0844-0.19088 0-0.11379 0.0807-0.19454 0.0844-0.0808 0.19822-0.0808 0.11746 0 0.20189 0.0808 0.0844 0.0771 0.0844 0.19087 0 0.11012-0.0844 0.19088-0.0808 0.0807-0.19822 0.0807z"/>
  </g>
  <path d="m121.02 247.06c-0.0934-0.0283-0.23546-0.15239-0.29212-0.25531-0.0223-0.0406-0.0514-0.24836-0.0644-0.46165-0.0291-0.47376-0.0577-0.53386-0.45785-0.9616-0.4818-0.51501-0.68486-1.0074-0.68486-1.6606 0-0.66177 0.21336-1.177 0.68098-1.6447 0.50137-0.50138 1.0315-0.70436 1.7555-0.67221 0.61047 0.0271 1.0924 0.2405 1.529 0.67712 0.26566 0.26566 0.43403 0.53456 0.56803 0.90721 0.0852 0.23681 0.0973 0.32665 0.0964 0.71408-8.3e-4 0.37926-0.0153 0.48623-0.0996 0.74155-0.12242 0.37056-0.3203 0.68075-0.64027 1.0037-0.32025 0.32324-0.38929 0.48115-0.41644 0.95259-0.0245 0.42485-0.0724 0.52925-0.29453 0.64261-0.46747 0.10692-1.5899 0.10141-1.6797 0.0172zm1.6452-0.29793c0.0445-0.0402 0.0676-0.11277 0.0676-0.21236l3e-5 -0.15124-1.8098 0.021v0.12105c0 0.0708 0.0313 0.15462 0.0753 0.20186 0.0727 0.0781 0.10098 0.0808 0.83731 0.0808 0.65722 0 0.77129-8e-3 0.82954-0.0611zm0.11161-0.7612c0.0491-0.2365 0.17661-0.43995 0.47077-0.75119 0.44975-0.47588 0.66591-0.97216 0.66591-1.5288 0-0.66767-0.36386-1.3574-0.90593-1.7172-0.349-0.23165-0.61464-0.31937-1.0324-0.34088-0.67133-0.0345-1.1348 0.13794-1.5878 0.59106-0.4236 0.42373-0.61543 0.87958-0.61348 1.4578 2e-3 0.60611 0.17575 1.0183 0.63431 1.5051 0.29215 0.31016 0.45292 0.57441 0.50021 0.82222l0.023 0.12066 1.8164-0.02z" stroke="#000" stroke-width=".13598"/>
  <path d="m121.12 247.02h1.3787l-0.0522 0.50882h-1.2627z" fill="none" stroke="#000" stroke-dashoffset="2.4" stroke-linecap="round" stroke-linejoin="round" stroke-width=".31166" style="paint-order:markers stroke fill"/>
 </g>
</svg>
